# xmcd
#
# Track frame offsets:
#	150
#	17241
#	34359
#	47885
#	65242
#	85258
#	99915
#	115416
#	132208
#	149237
#
# Disc length: 2199 seconds
#
# Revision: 0
# Processed by: cddbd v1.5.2PL0 Copyright (c) Steve Scherf et al.
# Submitted via: EZCDAudioConverter 7.1.5.1
#
DISCID=9808950a
DTITLE=吉馬大對唱 - 吉馬大對唱 10 CD 典藏版
DYEAR=20110616
DGENRE=
TTITLE0=愛的苦酒
TTITLE1=今天不回家
TTITLE2=彩雲伴海鷗
TTITLE3=淚的小花
TTITLE4=月琴
TTITLE5=又是細雨
TTITLE6=愛在夕陽下
TTITLE7=葡萄成熟時
TTITLE8=龍的傳人
TTITLE9=童年
EXTD=
EXTT0=
EXTT1=
EXTT2=
EXTT3=
EXTT4=
EXTT5=
EXTT6=
EXTT7=
EXTT8=
EXTT9=
PLAYORDER=
